<svg xmlns="http://www.w3.org/2000/svg" width="140" height="140">
  <path d="M3.879,136.485H8.492q6.511,0,6.515-7.66,0-6.52-6.515-6.522H3.879Zm5.2,3.365H0v-20.9H9.076q9.81,0,9.812,9.879,0,11.019-9.812,11.021m13.878,0H18.971l8.888-20.9h4.172l9.082,20.9H36.939l-2.635-5.7H27.6l1.33-3.36h4.35l-3.426-7.851Zm15.965-20.9H54.808v3.36h-6v17.54h-3.88V122.31H38.919ZM56.8,139.85H52.819l8.888-20.9h4.174l9.08,20.9H70.784l-2.634-5.7H61.443l1.331-3.36h4.349L63.7,122.938Zm24.614-3.365H86.03q6.517,0,6.518-7.66,0-6.52-6.518-6.522H81.417Zm5.2,3.365H77.539v-20.9h9.077q9.818,0,9.812,9.879,0,11.019-9.812,11.021m22.958-3.218q6.324,0,6.323-7.294,0-7.182-6.323-7.18-6.489,0-6.489,7.18,0,7.294,6.489,7.294m-10.517-7.2q0-10.629,10.517-10.628,10.356,0,10.351,10.628,0,10.567-10.351,10.57-10.051,0-10.517-10.57m37.059,1.963v4.9a9.556,9.556,0,0,1-2.4.348q-7.116,0-7.115-7.525,0-6.95,7.538-6.947A14.6,14.6,0,0,1,140,123.334v-3.512a17.343,17.343,0,0,0-6.149-1.021q-11.274,0-11.277,10.309,0,10.887,11.084,10.891A15.8,15.8,0,0,0,140,138.888V127.955h-6.268l-1.311,3.437ZM61.093,29.008c3.816-2.6,8.734-1.578,7.909-.8-1.569,1.494.52,1.052.746,3.81a4.756,4.756,0,0,1-1.067,3.787A24.308,24.308,0,0,0,64.3,36.822,22.1,22.1,0,0,0,61.584,37.9a6.658,6.658,0,0,1-.7-.53,5.263,5.263,0,0,1,.209-8.365m22.8,16.077a20.081,20.081,0,0,1,6.753-1.893,12.892,12.892,0,0,1,4.175-.023c.924.511.924,2.088.292,3.546-.92,2.119-2.224,4.457-3.7,4.649-2.405.317-4.681-.983-7.28-2.924a2.129,2.129,0,0,1-.243-3.355m4.387-20.62c3.552,1.654,3.087,4.8,3.185,6.645a5.22,5.22,0,0,1-.028,1.136,4.794,4.794,0,0,0-2.5-.408,9.27,9.27,0,0,0-1.05.112,7.427,7.427,0,0,1-2.81-3.538c-.065-.135-.116-.254-.163-.373-.019-.053-.044-.112-.063-.159-.009-.027-.016-.049-.025-.074-.393-1.248-.129-1.5.037-1.883s.812-.717-.135-1.045a1.778,1.778,0,0,0-.3-.068c.626-.777,2.508-.968,3.85-.345m-19.364,37.6A53.3,53.3,0,0,1,59.4,54.133c-.29-.219-.243-1.19-.243-1.19a53.423,53.423,0,0,0,14.9,7.96,12.15,12.15,0,0,0,9.347-.8,23.93,23.93,0,0,0,7.187-6.33l.324.562a14.538,14.538,0,0,1-1.238,2.916,7.969,7.969,0,0,0,2.137.775l5.677-.886A17.293,17.293,0,0,0,99.426,43.5c-.889-2.9-5.521-8.668-5.854-8.985-1.165-1.118.2-5.441-2.112-10.153-2.44-4.986-8.792-10.185-11.55-12.448.814.595,5.821,2.611,8.153,5.429.219-.293.31-1.805.511-2.186-2-2.623-2.159-7.3-2.159-8.543a14.2,14.2,0,0,0-1.166-4.885,7.817,7.817,0,0,1,2.524,4.319,17.637,17.637,0,0,0,3.643,7.943c3.266,4.069,6.214,6.157,7.707,4.652,1.783-1.806-1.808-9.886-6.4-14.4-5.356-5.257-6.76-4.58-9.9-3.457-2.508.893-3.864,8.015-10.4,7.875-1.108-.128-3.96-.2-5.369-.187.735-1.025,1.363-1.82,1.363-1.82a33.209,33.209,0,0,0-4.06,2l-.143-.217a11.76,11.76,0,0,1,1.309-2.168,36.847,36.847,0,0,0-3.351,2.312,5.071,5.071,0,0,1,1.391-2.59s-2.214.4-5.035,3.5A34.4,34.4,0,0,0,52,12.074c-4.151-.9-6.113-2.368-7.976-5.058-1.423-2.054-3.95-2.367-6.538-1.3C33.718,7.272,28.949,9.4,28.949,9.4s1.55-.06,3.171.012a41.066,41.066,0,0,0-4.349,2s1.04-.035,2.321-.014a21.564,21.564,0,0,1-2.216,1.643,31.579,31.579,0,0,0-3.671,3.171,22.158,22.158,0,0,1,2.611-.978c-.863,1.981-2.576,3.437-2.261,5.863.3,2.215,3.02,6.774,6.529,9.572.3.245,5.1,4.676,8.708,2.856s5.036-3.437,5.631-5.924c.7-2.854.3-5.008-1.19-11.2-.49-2.044-1.772-6.253-2.39-8.265l.138-.1a102.033,102.033,0,0,1,5.425,13.48c1.9,6.884,1.307,10.377.438,11.656-2.624,3.863-9.351,4.372-12.411,2.232-.468,7.413,1.188,10.675,1.748,12.32-.28,1.889.947,5.4.947,5.4a6.476,6.476,0,0,1,.7-2.436,15.938,15.938,0,0,0,1.095,4.1,7.726,7.726,0,0,1,.373-2.564,16.994,16.994,0,0,0,1.624,2.041,11.193,11.193,0,0,0,1.722,3.468,9.46,9.46,0,0,1-.084-2.194c2.805,2.7,3.288,6.627,3.568,9.646.786,8.308-13.1,14.911-15.788,20.107-2.041,3.076-3.26,7.946.192,10.816,8.35,6.932,5.144,8.841,9.323,11.888,5.731,4.179,12.906,2.306,15.349-1.092,3.4-4.737,2.525-9.2,1.261-13.382-.985-3.269-3.668-8.7-6.987-10.8a14.487,14.487,0,0,0-9.48-2.261l.259-.3c4.018-.8,8.216-.359,11.256,1.6,3.449,2.217,6.6,6.021,8.256,11.85,1.871-.266,2.137-.388,3.849-.63L60.757,62.958Zm2.228,37.642-.446-4.164,8.674-13.231,9.847,2.879,8.47-14.146,10.154,6.7,7.712-16.175,2.742,29.457Zm47.26-44.18-31,5.619a15.38,15.38,0,0,1-3.579,3.181,11.13,11.13,0,0,1-8.846.807A19,19,0,0,1,71.433,64L63.866,65.04l4.592,38.318,53.1-9.573Z" fill="#fff"/>
</svg>